<svg width="61" height="24" viewBox="0 0 61 24" fill="none" xmlns="http://www.w3.org/2000/svg">
<path d="M6.15057 0.0736801C6.37686 0.0736801 6.5843 0.167969 6.77287 0.356546C6.96145 0.545124 7.1076 0.941137 7.21132 1.54459C7.32446 2.1386 7.48947 2.99192 7.70633 4.10453C7.93262 5.21713 8.18249 6.40517 8.45593 7.66864C8.72937 8.93211 9.01695 10.238 9.31867 11.5863C9.62039 12.9252 9.92212 14.2264 10.2238 15.4899C10.9499 18.4506 11.5156 20.6145 11.921 21.9817C12.0153 22.3305 11.987 22.6087 11.8362 22.8161C11.6947 23.0236 11.5345 23.1273 11.3553 23.1273C11.1762 23.1273 11.0112 23.0754 10.8603 22.9717C10.7189 22.868 10.5916 22.5616 10.4784 22.0524C10.3653 21.5432 10.1814 20.7182 9.92683 19.5773C9.67225 18.4364 9.39882 17.2107 9.10652 15.9001C9.09709 15.8435 9.08766 15.7916 9.07823 15.7445C8.43707 15.7162 7.5319 15.702 6.36272 15.702C4.9861 15.702 3.93478 15.7209 3.20876 15.7586C3.19933 15.8152 3.1899 15.8718 3.18047 15.9283C2.60531 18.7004 2.18101 20.8455 1.90757 22.3636C1.81328 22.8444 1.56342 23.0849 1.15798 23.0849C0.733676 23.0849 0.474381 22.8774 0.380093 22.4626C0.351806 22.34 0.380093 22.1467 0.464952 21.8827C0.549812 21.6187 0.672388 21.1661 0.832679 20.5249C1.0024 19.8743 1.18155 19.1342 1.37012 18.3044C1.56813 17.4652 1.77557 16.5506 1.99243 15.5606C2.2093 14.5706 2.43087 13.5523 2.65717 12.5057C2.88346 11.4591 3.10975 10.4077 3.33605 9.3517C3.56234 8.28623 3.7792 7.25849 3.98664 6.26845C4.19407 5.27842 4.38737 4.34968 4.56651 3.48222C4.75509 2.61476 4.90595 1.92645 5.0191 1.4173C5.19825 0.521552 5.57541 0.0736801 6.15057 0.0736801ZM3.47748 14.4433C4.19407 14.481 5.16053 14.4999 6.37686 14.4999C7.38575 14.4999 8.19192 14.4857 8.79537 14.4574C8.59736 13.5994 8.39935 12.7178 8.20135 11.8126C7.89019 10.4077 7.59319 9.04526 7.31032 7.72522C6.83887 5.566 6.43343 3.6708 6.09399 2.0396C5.87713 3.12392 5.56598 4.59954 5.16053 6.46646C4.63252 8.95568 4.23179 10.8509 3.95835 12.1521C3.79806 12.9347 3.63777 13.6984 3.47748 14.4433ZM19.7847 20.1006C19.7753 19.582 19.7753 18.9456 19.7847 18.1913C19.3793 18.0498 18.8654 17.9791 18.2431 17.9791C17.4039 17.9791 16.7156 18.1818 16.1782 18.5873C15.9142 18.7947 15.702 19.0493 15.5417 19.351C15.3814 19.6433 15.3013 20.0252 15.3013 20.4966C15.3013 20.9586 15.4616 21.3452 15.7822 21.6564C16.1027 21.9675 16.5742 22.1231 17.1965 22.1231C17.8188 22.1231 18.5118 21.6988 19.2756 20.8502C19.4924 20.6145 19.6622 20.3646 19.7847 20.1006ZM20.6899 23.297C20.1242 23.297 19.8413 22.868 19.8413 22.01C19.8413 21.9534 19.8366 21.7931 19.8272 21.5291C19.7423 21.6328 19.648 21.746 19.5443 21.8685C18.6957 22.8303 17.7717 23.3112 16.7722 23.3112C15.9707 23.3112 15.306 23.0566 14.778 22.5474C14.2311 22.0194 13.9577 21.3452 13.9577 20.5249C13.9577 19.384 14.4008 18.4647 15.2872 17.767C15.6832 17.4558 16.1263 17.2201 16.6166 17.0598C17.1164 16.8995 17.6727 16.8194 18.2855 16.8194C18.7947 16.8194 19.2944 16.9042 19.7847 17.0739V15.5748C19.7847 14.745 19.6103 14.1227 19.2614 13.7078C18.922 13.293 18.5684 13.0855 18.2007 13.0855C17.8329 13.0855 17.5312 13.1327 17.2955 13.227C17.0692 13.3213 16.8665 13.458 16.6873 13.6371C16.2913 14.0237 16.065 14.5046 16.0085 15.0797C16.0367 15.3815 15.9755 15.5936 15.8246 15.7162C15.6737 15.8293 15.5087 15.8859 15.3296 15.8859C14.8204 15.8859 14.5753 15.5465 14.5941 14.8676C14.613 14.1604 14.9713 13.5098 15.669 12.9158C16.3856 12.3029 17.1871 11.9965 18.0734 11.9965C19.3934 11.9965 20.2845 12.6518 20.7465 13.9624C20.9068 14.4339 20.9869 14.9525 20.9869 15.5182V16.9749L20.9728 19.351V20.6098C20.9728 21.1755 21.0388 21.6328 21.1708 21.9817C21.3122 22.3305 21.3829 22.5804 21.3829 22.7313C21.3829 22.8727 21.3122 23 21.1708 23.1131C21.0293 23.2357 20.869 23.297 20.6899 23.297ZM32.4006 20.9916C32.4666 20.7559 32.5326 20.5108 32.5986 20.2562C32.7683 19.615 32.9474 18.9267 33.136 18.1913C33.4377 16.9561 33.8385 15.24 34.3382 13.0431C34.3948 12.7602 34.5032 12.5575 34.6635 12.4349C34.8332 12.3029 34.9982 12.2369 35.1585 12.2369C35.3188 12.2369 35.465 12.3077 35.597 12.4491C35.7384 12.5811 35.8091 12.7414 35.8091 12.93C35.8091 13.1185 35.7667 13.326 35.6818 13.5523C35.597 13.7691 35.4744 14.118 35.3141 14.5989C35.1632 15.0797 34.9982 15.6172 34.8191 16.2112C34.6494 16.7958 34.4702 17.4087 34.2816 18.0498C34.1025 18.6816 33.9328 19.285 33.7725 19.8602C33.5085 20.8031 33.3152 21.515 33.1926 21.9958C33.07 22.4767 32.9333 22.7643 32.7824 22.8586C32.641 22.9529 32.4949 23 32.344 23C31.9951 23 31.7735 22.835 31.6793 22.505C31.4718 21.7224 31.1701 20.4872 30.7741 18.7994C30.2838 16.7062 29.9019 15.1222 29.6285 14.0473C29.5625 14.3113 29.4965 14.5989 29.4305 14.91C29.2513 15.6455 29.0533 16.4375 28.8365 17.2861C28.2896 19.5113 27.837 21.2179 27.4787 22.406C27.4221 22.5663 27.3184 22.703 27.1675 22.8161C27.0167 22.9293 26.8658 22.9859 26.715 22.9859C26.3661 22.9859 26.1492 22.8256 26.0644 22.505C25.8192 21.6752 25.5929 20.8879 25.3855 20.143C25.178 19.3887 24.9706 18.6533 24.7632 17.9367C24.3389 16.4846 23.8769 15.0986 23.3771 13.7786C23.2828 13.5051 23.2357 13.2458 23.2357 13.0007C23.2357 12.7555 23.297 12.5669 23.4196 12.4349C23.5516 12.3029 23.7024 12.2369 23.8721 12.2369C24.3247 12.2369 24.617 12.4915 24.749 13.0007C24.8905 13.5004 25.0272 14.0331 25.1592 14.5989C25.3006 15.1552 25.4373 15.7303 25.5693 16.3244C25.7108 16.9089 25.8475 17.4935 25.9795 18.0781C26.1209 18.6533 26.2624 19.2002 26.4038 19.7188C26.5547 20.3033 26.6961 20.7984 26.8281 21.2038L28.7374 13.1987C28.9072 12.5669 29.2325 12.2511 29.7133 12.2511C30.2131 12.2511 30.5336 12.5858 30.6751 13.2553C31.3822 16.8759 31.9574 19.4547 32.4006 20.9916Z" fill="#161616"/>
<path d="M45.4407 8.81897V19.6433C45.4407 20.2971 45.3213 20.8502 45.0824 21.3028C44.8435 21.7428 44.523 22.1011 44.1207 22.3777C43.7184 22.6417 43.2532 22.8303 42.7252 22.9434C42.2097 23.044 41.6754 23.0943 41.1223 23.0943C40.8457 23.0943 40.5188 23.0629 40.1417 23C39.7771 22.9497 39.3937 22.868 38.9914 22.7548C38.6016 22.6291 38.2245 22.4908 37.8599 22.34C37.4953 22.1891 37.1873 22.0194 36.9359 21.8308L37.8976 20.3033C38.0233 20.3913 38.1993 20.4856 38.4256 20.5862C38.6645 20.6742 38.9222 20.7622 39.1988 20.8502C39.4754 20.9256 39.7645 20.9948 40.0662 21.0577C40.368 21.1205 40.6508 21.1519 40.9148 21.1519C41.5812 21.1519 42.1092 21.0262 42.4989 20.7748C42.9012 20.5108 43.1149 20.0708 43.1401 19.4547V8.81897H45.4407ZM49.3247 15.9849C49.3247 14.866 49.4567 13.8791 49.7207 13.0242C49.9972 12.1568 50.3744 11.4276 50.8521 10.8367C51.3424 10.2333 51.9145 9.77443 52.5682 9.46013C53.2345 9.13326 53.9574 8.94469 54.7368 8.8944V10.7802C54.3094 10.8305 53.9071 10.9625 53.5299 11.1762C53.1528 11.3899 52.8259 11.7042 52.5493 12.1191C52.2727 12.5339 52.0527 13.062 51.8893 13.7031C51.7259 14.3443 51.6379 15.1049 51.6253 15.9849C51.6379 16.8775 51.7259 17.6444 51.8893 18.2856C52.0527 18.9142 52.2727 19.4422 52.5493 19.8696C52.8385 20.2971 53.1716 20.6239 53.5488 20.8502C53.9259 21.0639 54.322 21.1897 54.7368 21.2274V23.0943C53.9699 23.044 53.2534 22.8617 52.587 22.5474C51.9207 22.2205 51.3424 21.7617 50.8521 21.1708C50.3744 20.5673 49.9972 19.8319 49.7207 18.9644C49.4567 18.097 49.3247 17.1038 49.3247 15.9849ZM55.4911 8.8944C56.258 8.93211 56.9683 9.11441 57.6221 9.44127C58.2884 9.76814 58.8604 10.2333 59.3381 10.8367C59.8284 11.4276 60.2119 12.1568 60.4884 13.0242C60.765 13.8791 60.9033 14.866 60.9033 15.9849C60.9033 17.1038 60.765 18.097 60.4884 18.9644C60.2119 19.8319 59.8284 20.5673 59.3381 21.1708C58.8604 21.7617 58.2947 22.2205 57.6409 22.5474C56.9872 22.8617 56.2706 23.044 55.4911 23.0943V21.2274C55.9186 21.1771 56.3209 21.0451 56.698 20.8314C57.0752 20.6051 57.4021 20.2845 57.6786 19.8696C57.9552 19.4422 58.1752 18.9142 58.3387 18.2856C58.5021 17.6444 58.5901 16.8775 58.6027 15.9849C58.5901 15.0923 58.5021 14.3317 58.3387 13.7031C58.1752 13.062 57.9489 12.5339 57.6598 12.1191C57.3832 11.6916 57.0563 11.3711 56.6792 11.1573C56.302 10.931 55.906 10.799 55.4911 10.7613V8.8944Z" fill="#7F56D9"/>
</svg>
